<svg width="246" height="115" viewBox="0 0 246 115" fill="none" xmlns="http://www.w3.org/2000/svg">
<path d="M194.927 116.784C211.666 107.831 227.246 98.11 236.557 81.3075C239.793 75.4669 242.978 69.4625 246 63.3364L246 116.784L194.927 116.784Z" fill="url(#paint0_linear_871_39)"/>
<path d="M195.291 116.785C211.911 107.81 227.379 98.067 236.624 81.2256C239.837 75.3714 242.999 69.3531 246 63.2129L246 -1.98877C238.654 3.93398 230.273 9.72677 221.83 15.5621C213.298 21.4597 204.702 27.4009 197.049 33.5636C189.136 39.9353 182.136 46.879 175.176 53.7829L175.175 53.7832C157.789 71.0291 140.654 88.0272 110.16 95.2439C69.8196 104.791 30.237 97.8077 -2.23641 86.9277L-2.23645 116.785L195.291 116.785Z" fill="url(#paint1_linear_871_39)"/>
<path d="M-2.23632 87.3074C30.2371 98.2109 69.8197 105.209 110.16 95.6415C140.654 88.4092 157.79 71.3745 175.175 54.0914L175.176 54.0911C182.136 47.1723 189.136 40.2136 197.049 33.8282C204.702 27.6522 213.298 21.6982 221.831 15.7879C230.273 9.93996 238.654 4.13468 246 -1.80084V-59L177.914 -59C182.571 -35.7473 175.217 -9.43578 160.402 9.11023C149.054 23.3163 131.084 25.6084 112.635 27.9615C103.21 29.1637 93.6588 30.3819 84.8024 33.2132C75.0525 36.3302 65.5529 41.7788 56.1777 47.156L56.1775 47.1561C37.8194 57.6855 19.9384 67.9413 1.58883 59.8817C0.272639 59.3036 -1.00204 58.6718 -2.23632 57.9895L-2.23632 87.3074Z" fill="url(#paint2_linear_871_39)"/>
<defs>
<linearGradient id="paint0_linear_871_39" x1="199.73" y1="43.9302" x2="298.442" y2="167.115" gradientUnits="userSpaceOnUse">
<stop stop-color="#43CEA2"/>
<stop offset="1" stop-color="#185A9D"/>
</linearGradient>
<linearGradient id="paint1_linear_871_39" x1="236.605" y1="174.275" x2="117.596" y2="47.9457" gradientUnits="userSpaceOnUse">
<stop stop-color="#185A9D"/>
<stop offset="1" stop-color="#43CEA2"/>
</linearGradient>
<linearGradient id="paint2_linear_871_39" x1="50.5139" y1="-18.5094" x2="247.267" y2="175.25" gradientUnits="userSpaceOnUse">
<stop stop-color="#43CEA2"/>
<stop offset="1" stop-color="#185A9D"/>
</linearGradient>
</defs>
</svg>
