<svg width="232" height="167" viewBox="0 0 232 167" fill="none" xmlns="http://www.w3.org/2000/svg">
<path d="M83 134.5C80.8989 134.5 78.8183 134.911 76.8771 135.709C74.9359 136.507 73.172 137.678 71.6863 139.153C68.6857 142.132 67 146.172 67 150.385C67 157.406 71.592 163.363 77.944 165.475C78.744 165.602 79 165.11 79 164.681V161.997C74.568 162.95 73.624 159.868 73.624 159.868C72.888 158.025 71.848 157.533 71.848 157.533C70.392 156.548 71.96 156.58 71.96 156.58C73.56 156.691 74.408 158.216 74.408 158.216C75.8 160.631 78.152 159.916 79.064 159.534C79.208 158.502 79.624 157.803 80.072 157.406C76.52 157.009 72.792 155.643 72.792 149.591C72.792 147.827 73.4 146.414 74.44 145.286C74.28 144.889 73.72 143.237 74.6 141.092C74.6 141.092 75.944 140.663 79 142.712C80.264 142.363 81.64 142.188 83 142.188C84.36 142.188 85.736 142.363 87 142.712C90.056 140.663 91.4 141.092 91.4 141.092C92.28 143.237 91.72 144.889 91.56 145.286C92.6 146.414 93.208 147.827 93.208 149.591C93.208 155.659 89.464 156.993 85.896 157.39C86.472 157.882 87 158.851 87 160.329V164.681C87 165.11 87.256 165.618 88.072 165.475C94.424 163.347 99 157.406 99 150.385C99 148.299 98.5861 146.233 97.7821 144.306C96.978 142.379 95.7994 140.628 94.3137 139.153C92.828 137.678 91.0641 136.507 89.1229 135.709C87.1817 134.911 85.1012 134.5 83 134.5Z" fill="#B2A8A3"/>
<path d="M46.8 154.929L55.104 150L46.8 145.071V154.929ZM65.296 142.065C65.504 142.837 65.648 143.872 65.744 145.186C65.856 146.501 65.904 147.634 65.904 148.62L66 150C66 153.598 65.744 156.243 65.296 157.935C64.896 159.414 63.968 160.366 62.528 160.777C61.776 160.991 60.4 161.139 58.288 161.237C56.208 161.352 54.304 161.401 52.544 161.401L50 161.5C43.296 161.5 39.12 161.237 37.472 160.777C36.032 160.366 35.104 159.414 34.704 157.935C34.496 157.163 34.352 156.128 34.256 154.814C34.144 153.499 34.096 152.366 34.096 151.38L34 150C34 146.402 34.256 143.757 34.704 142.065C35.104 140.586 36.032 139.634 37.472 139.223C38.224 139.009 39.6 138.861 41.712 138.763C43.792 138.648 45.696 138.599 47.456 138.599L50 138.5C56.704 138.5 60.88 138.763 62.528 139.223C63.968 139.634 64.896 140.586 65.296 142.065Z" fill="#B2A8A3"/>
<path d="M10.28 134H23.72C28.84 134 33 138.16 33 143.28V156.72C33 159.181 32.0223 161.542 30.282 163.282C28.5416 165.022 26.1812 166 23.72 166H10.28C5.16 166 1 161.84 1 156.72V143.28C1 140.819 1.97771 138.458 3.71805 136.718C5.45839 134.978 7.81879 134 10.28 134ZM9.96 137.2C8.43235 137.2 6.96727 137.807 5.88707 138.887C4.80686 139.967 4.2 141.432 4.2 142.96V157.04C4.2 160.224 6.776 162.8 9.96 162.8H24.04C25.5676 162.8 27.0327 162.193 28.1129 161.113C29.1931 160.033 29.8 158.568 29.8 157.04V142.96C29.8 139.776 27.224 137.2 24.04 137.2H9.96ZM25.4 139.6C25.9304 139.6 26.4391 139.811 26.8142 140.186C27.1893 140.561 27.4 141.07 27.4 141.6C27.4 142.13 27.1893 142.639 26.8142 143.014C26.4391 143.389 25.9304 143.6 25.4 143.6C24.8696 143.6 24.3609 143.389 23.9858 143.014C23.6107 142.639 23.4 142.13 23.4 141.6C23.4 141.07 23.6107 140.561 23.9858 140.186C24.3609 139.811 24.8696 139.6 25.4 139.6ZM17 142C19.1217 142 21.1566 142.843 22.6569 144.343C24.1571 145.843 25 147.878 25 150C25 152.122 24.1571 154.157 22.6569 155.657C21.1566 157.157 19.1217 158 17 158C14.8783 158 12.8434 157.157 11.3431 155.657C9.84285 154.157 9 152.122 9 150C9 147.878 9.84285 145.843 11.3431 144.343C12.8434 142.843 14.8783 142 17 142ZM17 145.2C15.727 145.2 14.5061 145.706 13.6059 146.606C12.7057 147.506 12.2 148.727 12.2 150C12.2 151.273 12.7057 152.494 13.6059 153.394C14.5061 154.294 15.727 154.8 17 154.8C18.273 154.8 19.4939 154.294 20.3941 153.394C21.2943 152.494 21.8 151.273 21.8 150C21.8 148.727 21.2943 147.506 20.3941 146.606C19.4939 145.706 18.273 145.2 17 145.2Z" fill="#B2A8A3"/>
<path d="M202.2 132L199 128.8L211.8 116L199 103.2L202.2 100L215 112.8L227.8 100L231 103.2L218.2 116L231 128.8L227.8 132L215 119.2L202.2 132Z" fill="#DADCE0"/>
<path d="M195.511 132L184.311 120.8C183.422 121.511 182.4 122.074 181.244 122.489C180.089 122.904 178.859 123.111 177.556 123.111C174.326 123.111 171.593 121.993 169.356 119.756C167.119 117.519 166 114.785 166 111.556C166 108.326 167.119 105.592 169.356 103.355C171.593 101.118 174.326 100 177.556 100C180.785 100 183.519 101.118 185.756 103.355C187.993 105.592 189.111 108.326 189.111 111.556C189.111 112.859 188.904 114.089 188.489 115.244C188.074 116.4 187.511 117.422 186.8 118.311L198 129.511L195.511 132ZM177.556 119.556C179.778 119.556 181.667 118.778 183.223 117.223C184.778 115.667 185.556 113.778 185.556 111.556C185.556 109.333 184.778 107.444 183.223 105.888C181.667 104.333 179.778 103.556 177.556 103.556C175.333 103.556 173.444 104.333 171.888 105.888C170.333 107.444 169.556 109.333 169.556 111.556C169.556 113.778 170.333 115.667 171.888 117.223C173.444 118.778 175.333 119.556 177.556 119.556Z" fill="#DADCE0"/>
<path d="M133 119.333L149 108L165 119.333L159.667 125L149 117.444L138.333 125L133 119.333Z" fill="#DADCE0"/>
<path d="M125.059 106.333H126.706C127.58 106.333 128.417 106.673 129.035 107.277C129.653 107.881 130 108.701 130 109.556C130 111.692 129.132 113.741 127.588 115.252C126.044 116.762 123.949 117.611 121.765 117.611H113.529V120.833M102 104.722C102 103.868 102.347 103.048 102.965 102.444C103.583 101.839 104.42 101.5 105.294 101.5H121.765C122.638 101.5 123.476 101.839 124.094 102.444C124.712 103.048 125.059 103.868 125.059 104.722V107.944C125.059 108.799 124.712 109.619 124.094 110.223C123.476 110.827 122.638 111.167 121.765 111.167H105.294C104.42 111.167 103.583 110.827 102.965 110.223C102.347 109.619 102 108.799 102 107.944V104.722ZM110.235 122.444C110.235 122.017 110.409 121.607 110.718 121.305C111.027 121.003 111.446 120.833 111.882 120.833H115.176C115.613 120.833 116.032 121.003 116.341 121.305C116.65 121.607 116.824 122.017 116.824 122.444V128.889C116.824 129.316 116.65 129.726 116.341 130.028C116.032 130.33 115.613 130.5 115.176 130.5H111.882C111.446 130.5 111.027 130.33 110.718 130.028C110.409 129.726 110.235 129.316 110.235 128.889V122.444Z" stroke="#AFB1B2" stroke-width="3" stroke-linecap="round" stroke-linejoin="round"/>
<path d="M70 122.519C70 120.583 70.5219 118.923 71.5656 117.541C72.6093 116.119 74.0444 115.032 75.871 114.281C77.7348 113.491 79.8781 113.096 82.3011 113.096C83.7176 113.096 85.19 113.215 86.7183 113.452C88.2466 113.689 89.6072 114.044 90.8 114.519V111.911C90.8 109.304 90.0731 107.23 88.6194 105.689C87.1656 104.148 85.1527 103.378 82.5806 103.378C81.0151 103.378 79.4681 103.694 77.9398 104.326C76.4487 104.919 74.8832 105.807 73.243 106.993L71.7892 104.148C73.6903 102.765 75.5541 101.738 77.3806 101.067C79.2072 100.356 81.071 100 82.972 100C86.5505 100 89.3835 101.086 91.471 103.259C93.5584 105.432 94.6021 108.435 94.6021 112.267V126.548C94.6021 127.101 94.714 127.516 94.9376 127.793C95.1613 128.03 95.5154 128.168 96 128.207V131.407C95.59 131.447 95.2358 131.486 94.9376 131.526C94.6394 131.565 94.4158 131.565 94.2667 131.526C93.3348 131.486 92.6265 131.17 92.1419 130.578C91.6573 129.985 91.3964 129.353 91.3591 128.681L91.3032 126.43C89.9986 128.207 88.3025 129.59 86.2151 130.578C84.1276 131.526 82.0029 132 79.8409 132C77.9771 132 76.281 131.585 74.7527 130.756C73.2616 129.886 72.0875 128.741 71.2301 127.319C70.41 125.857 70 124.257 70 122.519ZM89.514 124.889C89.924 124.336 90.2409 123.802 90.4645 123.289C90.6882 122.775 90.8 122.321 90.8 121.926V117.422C89.5326 116.909 88.2093 116.514 86.8301 116.237C85.4882 115.96 84.1276 115.822 82.7484 115.822C80.0272 115.822 77.828 116.395 76.1505 117.541C74.4731 118.686 73.6344 120.247 73.6344 122.222C73.6344 123.368 73.914 124.454 74.4731 125.481C75.0323 126.469 75.8523 127.299 76.9333 127.97C78.0143 128.602 79.2817 128.919 80.7355 128.919C82.562 128.919 84.2581 128.543 85.8237 127.793C87.4265 127.042 88.6566 126.074 89.514 124.889Z" fill="#AFB1B2"/>
<path d="M53.3208 119.182L52.6295 119.004L52.1248 119.509L42.0542 129.581C41.2996 130.335 40.3008 130.75 39.2462 130.75C38.195 130.75 37.1926 130.338 36.4152 129.576C36.0464 129.207 35.7537 128.77 35.5538 128.288C35.3532 127.804 35.25 127.286 35.25 126.763C35.25 126.24 35.3532 125.721 35.5538 125.238L34.3992 124.759L35.5538 125.238C35.7543 124.755 36.0482 124.316 36.4187 123.946L36.4199 123.945L46.4905 113.873L46.9951 113.368L46.817 112.677C46.01 109.546 46.8861 106.184 49.1586 103.911C50.291 102.781 51.7011 101.969 53.2469 101.557C54.793 101.145 56.4203 101.148 57.965 101.565L57.9658 101.565C57.991 101.572 58.0087 101.583 58.0214 101.596C58.0341 101.609 58.0457 101.626 58.0525 101.652C58.0606 101.682 58.0584 101.703 58.055 101.715C58.0518 101.728 58.0451 101.742 58.0283 101.759L57.9277 101.86L57.8523 101.98L54.8253 106.822L55.8852 107.484L54.8253 106.822C54.4344 107.447 54.2156 108.164 54.191 108.901C54.1369 110.528 55.4699 111.861 57.0963 111.807L57.351 111.798C57.9209 111.779 58.4757 111.61 58.9592 111.308L64.0164 108.145L64.1369 108.069L64.2375 107.969C64.2478 107.958 64.2637 107.948 64.285 107.943C64.307 107.937 64.3242 107.939 64.3324 107.941L64.3324 107.941L64.3445 107.945C64.3697 107.951 64.3874 107.963 64.4001 107.976C64.4128 107.988 64.4243 108.006 64.4311 108.031L64.4319 108.034C65.284 111.17 64.3982 114.543 62.0889 116.837L62.0858 116.84C59.813 119.113 56.4518 119.989 53.3208 119.182Z" stroke="#AFB1B2" stroke-width="2.5"/>
<path d="M33 112.432L21.496 111.453L17 101L12.504 111.468L1 112.432L9.736 119.9L7.112 131L17 125.111L26.888 131L24.28 119.9L33 112.432ZM17 122.158L10.984 125.742L12.584 118.984L7.272 114.437L14.28 113.837L17 107.474L19.736 113.853L26.744 114.453L21.432 119L23.032 125.758L17 122.158Z" fill="#DADCE0"/>
<path d="M199 89.9338C199 88.8977 199.264 87.9964 199.792 87.2297C200.339 86.4423 201.083 85.8414 202.026 85.427C202.969 84.9919 204.063 84.7743 205.307 84.7743C205.967 84.7743 206.636 84.8261 207.315 84.9297C208.013 85.0333 208.625 85.1991 209.153 85.427V84.4014C209.153 83.2617 208.842 82.3707 208.22 81.7284C207.598 81.086 206.702 80.7649 205.533 80.7649C204.704 80.7649 203.921 80.9306 203.186 81.2622C202.45 81.573 201.668 82.0185 200.838 82.5986L199.792 80.2986C200.772 79.5734 201.753 79.0347 202.733 78.6824C203.733 78.3302 204.779 78.1541 205.873 78.1541C207.852 78.1541 209.408 78.7342 210.539 79.8946C211.689 81.0342 212.264 82.6608 212.264 84.7743V90.8351C212.264 91.2288 212.321 91.5086 212.434 91.6743C212.566 91.8401 212.783 91.9333 213.085 91.9541V94.6892C212.802 94.7514 212.547 94.7928 212.321 94.8135C212.095 94.8342 211.906 94.8446 211.755 94.8446C211.095 94.8446 210.596 94.6685 210.256 94.3162C209.917 93.964 209.719 93.5496 209.662 93.073L209.578 92.1405C208.936 93.0523 208.116 93.7568 207.117 94.2541C206.118 94.7514 205.109 95 204.091 95C203.11 95 202.234 94.7824 201.461 94.3473C200.688 93.8914 200.084 93.2802 199.65 92.5135C199.217 91.7468 199 90.8869 199 89.9338ZM208.418 90.9284C208.644 90.659 208.823 90.3896 208.955 90.1203C209.087 89.8509 209.153 89.6126 209.153 89.4054V87.5405C208.625 87.3126 208.069 87.1468 207.485 87.0432C206.9 86.9189 206.325 86.8568 205.759 86.8568C204.628 86.8568 203.704 87.1054 202.988 87.6027C202.29 88.1 201.941 88.7838 201.941 89.6541C201.941 90.1306 202.054 90.5865 202.281 91.0216C202.526 91.4568 202.865 91.809 203.299 92.0784C203.751 92.3477 204.308 92.4824 204.968 92.4824C205.646 92.4824 206.297 92.3374 206.919 92.0473C207.541 91.7572 208.041 91.3842 208.418 90.9284Z" fill="#AFB1B2"/>
<path d="M224.014 95C222.883 95 221.855 94.7099 220.932 94.1297C220.027 93.5288 219.31 92.7311 218.782 91.7365V94.6892H216.039V72H219.15V81.5108C219.734 80.4748 220.46 79.6563 221.327 79.0554C222.214 78.4545 223.251 78.1541 224.439 78.1541C225.419 78.1541 226.315 78.382 227.125 78.8378C227.936 79.2937 228.624 79.9153 229.19 80.7027C229.774 81.4901 230.218 82.3914 230.519 83.4068C230.84 84.4221 231 85.4995 231 86.6392C231 87.7788 230.821 88.8563 230.463 89.8716C230.123 90.8869 229.633 91.7779 228.992 92.5446C228.351 93.3113 227.606 93.9122 226.758 94.3473C225.928 94.7824 225.014 95 224.014 95ZM223.194 92.0784C223.873 92.0784 224.495 91.9333 225.061 91.6432C225.626 91.3324 226.117 90.9284 226.531 90.4311C226.946 89.9338 227.257 89.3536 227.465 88.6905C227.691 88.0275 227.804 87.3437 227.804 86.6392C227.804 85.6653 227.616 84.7536 227.238 83.9041C226.88 83.0545 226.371 82.3707 225.711 81.8527C225.051 81.3347 224.288 81.0757 223.42 81.0757C222.798 81.0757 222.214 81.2414 221.667 81.573C221.12 81.8838 220.63 82.3086 220.196 82.8473C219.781 83.3653 219.433 83.9455 219.15 84.5878V88.877C219.263 89.3536 219.461 89.7887 219.744 90.1824C220.027 90.5554 220.356 90.8869 220.734 91.177C221.111 91.4464 221.516 91.664 221.95 91.8297C222.383 91.9955 222.798 92.0784 223.194 92.0784Z" fill="#AFB1B2"/>
<path d="M193.798 80.8229V95H190.527V81.9029L187.257 83V95H183.987V84.0629L180.716 85.16V95H177.446V86.24L174.176 87.2857V95H170.905V88.4L166.932 89.72L166 86.4286L170.905 84.8V71H174.176V83.72L177.446 82.64V71H180.716V81.56L183.987 80.48V71H187.257V79.4L190.527 78.3029V71H193.798V77.2229L197.068 76.1429L198 79.4343L193.798 80.8229Z" fill="#AFB1B2"/>
<path d="M136.556 99C135.578 99 134.74 98.6521 134.044 97.9564C133.348 97.2596 133 96.4222 133 95.4444V70.5556C133 69.5778 133.348 68.7404 134.044 68.0436C134.74 67.3479 135.578 67 136.556 67H161.444C162.422 67 163.26 67.3479 163.956 68.0436C164.652 68.7404 165 69.5778 165 70.5556V95.4444C165 96.4222 164.652 97.2596 163.956 97.9564C163.26 98.6521 162.422 99 161.444 99H136.556ZM135.556 94.4444C135.556 95.549 136.451 96.4444 137.556 96.4444H160.444C161.549 96.4444 162.444 95.549 162.444 94.4444V71.5556C162.444 70.451 161.549 69.5556 160.444 69.5556H137.556C136.451 69.5556 135.556 70.451 135.556 71.5556V94.4444ZM138.333 91.8889H159.667L153 83L147.667 90.1111L143.667 84.7778L138.333 91.8889Z" fill="#AFB1B2"/>
<path d="M132 80.167L116 91.5L100 80.167L105.333 74.5005L116 82.0557L126.667 74.5005L132 80.167Z" fill="#DADCE0"/>
<path d="M88.3333 75H69.6667C68.9594 75 68.2811 75.281 67.781 75.781C67.281 76.2811 67 76.9594 67 77.6667V96.3333C67 97.0406 67.281 97.7189 67.781 98.219C68.2811 98.719 68.9594 99 69.6667 99H88.3333C89.0406 99 89.7189 98.719 90.219 98.219C90.719 97.7189 91 97.0406 91 96.3333V77.6667C91 76.9594 90.719 76.2811 90.219 75.781C89.7189 75.281 89.0406 75 88.3333 75ZM88.3333 96.3333H69.6667V77.6667H88.3333V96.3333ZM84.3333 68.3333C84.3333 67.9797 84.4738 67.6406 84.7239 67.3905C84.9739 67.1405 85.313 67 85.6667 67H88.3333C88.687 67 89.0261 67.1405 89.2761 67.3905C89.5262 67.6406 89.6667 67.9797 89.6667 68.3333C89.6667 68.687 89.5262 69.0261 89.2761 69.2761C89.0261 69.5262 88.687 69.6667 88.3333 69.6667H85.6667C85.313 69.6667 84.9739 69.5262 84.7239 69.2761C84.4738 69.0261 84.3333 68.687 84.3333 68.3333ZM99 69.6667V71C99 71.3536 98.8595 71.6928 98.6095 71.9428C98.3594 72.1929 98.0203 72.3333 97.6667 72.3333C97.313 72.3333 96.9739 72.1929 96.7239 71.9428C96.4738 71.6928 96.3333 71.3536 96.3333 71V69.6667H95C94.6464 69.6667 94.3072 69.5262 94.0572 69.2761C93.8071 69.0261 93.6667 68.687 93.6667 68.3333C93.6667 67.9797 93.8071 67.6406 94.0572 67.3905C94.3072 67.1405 94.6464 67 95 67H96.3333C97.0406 67 97.7189 67.281 98.219 67.781C98.719 68.2811 99 68.9594 99 69.6667ZM99 77.6667V80.3333C99 80.687 98.8595 81.0261 98.6095 81.2761C98.3594 81.5262 98.0203 81.6667 97.6667 81.6667C97.313 81.6667 96.9739 81.5262 96.7239 81.2761C96.4738 81.0261 96.3333 80.687 96.3333 80.3333V77.6667C96.3333 77.313 96.4738 76.9739 96.7239 76.7239C96.9739 76.4738 97.313 76.3333 97.6667 76.3333C98.0203 76.3333 98.3594 76.4738 98.6095 76.7239C98.8595 76.9739 99 77.313 99 77.6667ZM99 87V88.3333C99 89.0406 98.719 89.7189 98.219 90.219C97.7189 90.719 97.0406 91 96.3333 91H95C94.6464 91 94.3072 90.8595 94.0572 90.6095C93.8071 90.3594 93.6667 90.0203 93.6667 89.6667C93.6667 89.313 93.8071 88.9739 94.0572 88.7239C94.3072 88.4738 94.6464 88.3333 95 88.3333H96.3333V87C96.3333 86.6464 96.4738 86.3072 96.7239 86.0572C96.9739 85.8071 97.313 85.6667 97.6667 85.6667C98.0203 85.6667 98.3594 85.8071 98.6095 86.0572C98.8595 86.3072 99 86.6464 99 87ZM75 71V69.6667C75 68.9594 75.281 68.2811 75.781 67.781C76.2811 67.281 76.9594 67 77.6667 67H79C79.3536 67 79.6928 67.1405 79.9428 67.3905C80.1929 67.6406 80.3333 67.9797 80.3333 68.3333C80.3333 68.687 80.1929 69.0261 79.9428 69.2761C79.6928 69.5262 79.3536 69.6667 79 69.6667H77.6667V71C77.6667 71.3536 77.5262 71.6928 77.2761 71.9428C77.0261 72.1929 76.687 72.3333 76.3333 72.3333C75.9797 72.3333 75.6406 72.1929 75.3905 71.9428C75.1405 71.6928 75 71.3536 75 71Z" fill="#AFB1B2"/>
<path d="M37.7292 99C36.8411 99 36.0812 98.6869 35.4494 98.0608C34.8165 97.4336 34.5 96.68 34.5 95.8V70.2C34.5 69.32 34.8165 68.5664 35.4494 67.9392C36.0812 67.3131 36.8411 67 37.7292 67H50.6458L60.3333 76.6V83H57.1042V78.2H49.0312V70.2H37.7292V95.8H47.4167V99H37.7292ZM57.5885 87.04L59.3242 88.76L53.0677 94.92V96.6H54.763L61.0195 90.44L62.7148 92.12L55.7721 99H50.6458V93.92L57.5885 87.04ZM62.7148 92.12L57.5885 87.04L59.9297 84.72C60.2257 84.4267 60.6024 84.28 61.0599 84.28C61.5174 84.28 61.8941 84.4267 62.1901 84.72L65.056 87.56C65.352 87.8533 65.5 88.2267 65.5 88.68C65.5 89.1333 65.352 89.5067 65.056 89.8L62.7148 92.12Z" fill="#AFB1B2"/>
<path d="M1 92.5V85.7384H3.90909V89.7954H30.0909V85.7384H33V92.5H1ZM13.4364 87.0569V85.9075H13.3273C13.0121 86.3582 12.5879 86.7135 12.0545 86.9731C11.5212 87.2318 10.9152 87.3612 10.2364 87.3612C9.04848 87.3612 8.11515 87.0736 7.43636 86.4984C6.75758 85.9242 6.41818 85.1412 6.41818 84.1495C6.41818 83.2028 6.81236 82.4307 7.60073 81.833C8.38812 81.2361 9.4 80.9377 10.6364 80.9377C11.1939 80.9377 11.7093 80.9769 12.1825 81.0554C12.6548 81.1347 13.0606 81.2645 13.4 81.4448V80.9715C13.4 80.363 13.1755 79.8784 12.7265 79.5178C12.2785 79.1572 11.6667 78.9769 10.8909 78.9769C10.3818 78.9769 9.90279 79.0783 9.45382 79.2811C9.00582 79.484 8.62424 79.777 8.30909 80.1601L6.74545 79.0783C7.20606 78.4698 7.78788 78.0077 8.49091 77.6922C9.19394 77.3766 10.0061 77.2189 10.9273 77.2189C12.4303 77.2189 13.5818 77.5511 14.3818 78.2155C15.1818 78.8809 15.5818 79.8446 15.5818 81.1068V87.0569H13.4364ZM11.0364 82.5267C10.2606 82.5267 9.66667 82.6673 9.25455 82.9486C8.84242 83.2308 8.63636 83.6311 8.63636 84.1495C8.63636 84.6002 8.81818 84.9663 9.18182 85.2475C9.54545 85.5297 10.0182 85.6708 10.6 85.6708C11.3758 85.6708 12.0366 85.417 12.5825 84.9095C13.1275 84.4028 13.4 83.7889 13.4 83.0676C13.0606 82.8873 12.6727 82.7521 12.2364 82.6619C11.8 82.5718 11.4 82.5267 11.0364 82.5267ZM17.7636 87.0569V73.5H20.0182V77.3203L19.9091 78.6726H20.0182C20.0909 78.5599 20.3818 78.2723 20.8909 77.8098C21.4 77.3482 22.2 77.1174 23.2909 77.1174C24.8424 77.1174 26.0667 77.6358 26.9636 78.6726C27.8606 79.7094 28.3091 80.9039 28.3091 82.2562C28.3091 83.6085 27.8669 84.7972 26.9825 85.8223C26.0972 86.8482 24.8667 87.3612 23.2909 87.3612C22.297 87.3612 21.5396 87.1584 21.0189 86.7527C20.4972 86.347 20.1636 86.0314 20.0182 85.8061H19.9091V87.0569H17.7636ZM22.9636 79.0107C21.9939 79.0107 21.2424 79.3429 20.7091 80.0073C20.1758 80.6727 19.9091 81.411 19.9091 82.2224C19.9091 83.0563 20.1758 83.8001 20.7091 84.4537C21.2424 85.1074 21.9939 85.4342 22.9636 85.4342C23.9333 85.4342 24.6912 85.1074 25.2371 84.4537C25.7821 83.8001 26.0545 83.0563 26.0545 82.2224C26.0545 81.3885 25.7821 80.6447 25.2371 79.9911C24.6912 79.3375 23.9333 79.0107 22.9636 79.0107Z" fill="#AFB1B2"/>
<path d="M218.51 48.9603C222.316 48.9603 225.361 51.9523 225.361 55.6924C225.361 57.0089 224.98 58.2506 224.31 59.2828L229 63.9205L226.884 66L222.133 61.4072C221.083 62.0505 219.834 62.4245 218.51 62.4245C214.703 62.4245 211.658 59.4324 211.658 55.6924C211.658 51.9523 214.703 48.9603 218.51 48.9603ZM218.51 51.9523C217.5 51.9523 216.532 52.3464 215.818 53.0478C215.104 53.7492 214.703 54.7005 214.703 55.6924C214.703 56.6843 215.104 57.6356 215.818 58.337C216.532 59.0384 217.5 59.4324 218.51 59.4324C219.519 59.4324 220.487 59.0384 221.201 58.337C221.915 57.6356 222.316 56.6843 222.316 55.6924C222.316 54.7005 221.915 53.7492 221.201 53.0478C220.487 52.3464 219.519 51.9523 218.51 51.9523ZM204.045 63.9205C203.238 63.9205 202.463 63.6053 201.892 63.0442C201.321 62.4831 201 61.722 201 60.9285V36.9921C201 36.1985 201.321 35.4375 201.892 34.8764C202.463 34.3152 203.238 34 204.045 34H205.568V44.4722L209.374 42.2281L213.181 44.4722V34H222.316C223.124 34 223.898 34.3152 224.469 34.8764C225.04 35.4375 225.361 36.1985 225.361 36.9921V48.676C223.52 46.9359 221.064 45.9653 218.51 45.9682C215.885 45.9682 213.367 46.9927 211.512 48.8164C209.656 50.64 208.613 53.1134 208.613 55.6924C208.613 59.1482 210.455 62.2001 213.226 63.9205H204.045Z" fill="#AFB1B2"/>
<path d="M196.5 34C172.333 34 169.111 56.4 167.5 66H170.719C171.792 60.6672 174.478 57.7344 178.778 57.2C185.222 56.4 190.056 50.8 191.667 46L189.25 44.4L190.861 42.8C192.472 41.2 194.09 38.8 196.5 34Z" fill="#AFB1B2"/>
<path d="M139.4 63L133 56.5L135.24 54.225L137.8 56.7437V43.2562L135.24 45.775L133 43.5L139.4 37L145.8 43.5L143.56 45.775L141 43.2562V56.7437L143.56 54.225L145.8 56.5L139.4 63ZM149 61.375V58.125H165V61.375H149ZM149 51.625V48.375H165V51.625H149ZM149 41.875V38.625H165V41.875H149Z" fill="#AFB1B2"/>
<path d="M100 66V62.4444H132V66H100ZM100 58.8889V55.3333H132V58.8889H100ZM100 51.7778V48.2222H132V51.7778H100ZM100 44.6667V41.1111H132V44.6667H100ZM100 37.5556V34H132V37.5556H100Z" fill="#AFB1B2"/>
<path d="M67 66V62.4444H99V66H67ZM77.6667 58.8889V55.3333H99V58.8889H77.6667ZM67 51.7778V48.2222H99V51.7778H67ZM77.6667 44.6667V41.1111H99V44.6667H77.6667ZM67 37.5556V34H99V37.5556H67Z" fill="#AFB1B2"/>
<path d="M34 66V62.4444H66V66H34ZM41.1111 58.8889V55.3333H58.8889V58.8889H41.1111ZM34 51.7778V48.2222H66V51.7778H34ZM41.1111 44.6667V41.1111H58.8889V44.6667H41.1111ZM34 37.5556V34H66V37.5556H34Z" fill="#AFB1B2"/>
<path d="M1 66V62.4444H33V66H1ZM1 58.8889V55.3333H22.3333V58.8889H1ZM1 51.7778V48.2222H33V51.7778H1ZM1 44.6667V41.1111H22.3333V44.6667H1ZM1 37.5556V34H33V37.5556H1Z" fill="#AFB1B2"/>
<path d="M201 33V29.4444H229V33H201ZM215 25.8889C211.633 25.8889 209.017 24.9556 207.15 23.0889C205.283 21.2222 204.35 18.7481 204.35 15.6667V1H209.5V15.9333C209.5 17.5926 209.967 18.9407 210.9 19.9778C211.833 21.0148 213.2 21.5333 215 21.5333C216.8 21.5333 218.167 21.0148 219.1 19.9778C220.033 18.9407 220.5 17.5926 220.5 15.9333V1H225.65V15.6667C225.65 18.7481 224.717 21.2222 222.85 23.0889C220.983 24.9556 218.367 25.8889 215 25.8889Z" fill="#AFB1B2"/>
<path d="M166 33V27.2857H175.846L183.231 6.71429H173.385V1H198V6.71429H189.385L182 27.2857H190.615V33H166Z" fill="#AFB1B2"/>
<path d="M136.5 33V1H149.781C152.385 1 154.789 1.7619 156.993 3.28571C159.196 4.80952 160.298 6.92381 160.298 9.62857C160.298 11.5714 159.837 13.0663 158.916 14.1131C157.994 15.1615 157.133 15.9143 156.332 16.3714C157.333 16.7905 158.446 17.5714 159.668 18.7143C160.889 19.8571 161.5 21.5714 161.5 23.8571C161.5 27.2476 160.198 29.6194 157.594 30.9726C154.99 32.3242 152.546 33 150.262 33H136.5ZM143.772 26.6H150.022C151.945 26.6 153.116 26.133 153.536 25.1989C153.958 24.2663 154.168 23.5905 154.168 23.1714C154.168 22.7524 153.958 22.0758 153.536 21.1417C153.116 20.2091 151.885 19.7429 149.841 19.7429H143.772V26.6ZM143.772 13.5714H149.361C150.683 13.5714 151.644 13.2476 152.245 12.6C152.846 11.9524 153.147 11.2286 153.147 10.4286C153.147 9.51429 152.806 8.77143 152.125 8.2C151.444 7.62857 150.562 7.34286 149.481 7.34286H143.772V13.5714Z" fill="#AFB1B2"/>
<path d="M115.564 22.1667H118.82L110.859 1.5H107.961L100 22.1667H103.256L105.001 17.3974H113.788L115.564 22.1667ZM106.185 14.2179L109.41 5.44256L112.635 14.2179H106.185ZM129.803 15.1559L117.2 28.0169L111.482 22.1667L109.285 24.4082L117.215 32.5L132 17.3974L129.803 15.1559Z" fill="#AFB1B2"/>
<path d="M95.5514 7.12189L90.1451 1.46915C89.86 1.17046 89.4737 1.00181 89.0703 1.00001C88.6668 0.998216 88.2791 1.16341 87.9917 1.45955L74.735 15.1122C74.5283 15.3262 74.3836 15.5968 74.3175 15.893L72.7514 22.9921L70 26.6001H74.3251L76.0717 24.7937L81.5591 23.4689C81.8344 23.4017 82.0867 23.2561 82.2886 23.0497L95.5438 9.39386C95.6876 9.24565 95.802 9.06911 95.8803 8.87442C95.9586 8.67974 95.9993 8.47076 96 8.25954C96.0007 8.04832 95.9614 7.83905 95.8844 7.64379C95.8075 7.44853 95.6943 7.27115 95.5514 7.12189ZM81.2226 19.6545L77.9788 16.2626L89.0561 4.85311L92.2984 8.24507L81.2226 19.6545ZM70 29.8H94.4701V33H70V29.8Z" fill="#AFB1B2"/>
<path d="M34.5 33V26.9048H65.5V33H34.5ZM39.925 22.3333L48.0625 1H51.9375L60.075 22.3333H56.355L54.4175 16.8476H45.66L43.645 22.3333H39.925ZM46.745 13.8H53.255L50.0775 4.9619H49.9225L46.745 13.8Z" fill="#AFB1B2"/>
<path d="M30.7386 1H3.26605L3 10.1429H5.33372C6.17386 5.13257 6.99533 4.69371 13.2404 4.49714L14.6079 4.45143V27.72C14.6079 29.8686 14.1412 30.3806 10.4166 30.7143V33H23.5834V30.7143C19.8355 30.3806 19.3687 29.8731 19.3687 27.7246V4.45143L20.7596 4.49714C27.0047 4.69371 27.8261 5.13714 28.6663 10.1429H31L30.7386 1Z" fill="#AFB1B2"/>
</svg>
