<svg width="1497" height="400" viewBox="0 0 1497 400" fill="none" xmlns="http://www.w3.org/2000/svg">
<path d="M0 400H1497V0H0V400Z" fill="#FEECE3"/>
<path d="M229.738 150.528V225.028C229.738 237.148 232.5 246.633 238.025 253.484C243.682 260.335 251.51 263.76 261.508 263.76C271.9 263.76 279.925 260.532 285.582 254.077C291.37 247.621 294.33 238.663 294.461 227.201V150.528H307.485V226.016C307.485 240.112 303.144 251.244 294.461 259.412C285.911 267.58 273.742 271.664 257.956 271.664C238.88 271.664 224.673 267.646 215.333 259.61C205.992 251.442 201.322 240.31 201.322 226.213V150.528H229.738ZM201.717 150.528V160.804H201.322C201.191 158.301 200.27 156.259 198.56 154.678C196.849 153.097 194.745 152.306 192.245 152.306C192.245 152.306 191.785 152.306 190.864 152.306C189.943 152.306 189.482 152.306 189.482 152.306V150.528H201.717ZM241.38 150.528V152.306C241.38 152.306 240.92 152.306 239.999 152.306C239.078 152.306 238.617 152.306 238.617 152.306C236.118 152.306 234.013 153.097 232.303 154.678C230.593 156.259 229.738 158.301 229.738 160.804H229.343V150.528H241.38ZM294.856 150.528V160.804H294.461C294.33 158.301 293.409 156.259 291.699 154.678C289.989 153.097 287.95 152.306 285.582 152.306C285.582 152.306 285.121 152.306 284.2 152.306C283.279 152.306 282.819 152.306 282.819 152.306V150.528H294.856ZM319.128 150.528V152.306C319.128 152.306 318.667 152.306 317.746 152.306C316.957 152.306 316.562 152.306 316.562 152.306C314.063 152.306 311.892 153.097 310.05 154.678C308.34 156.259 307.485 158.301 307.485 160.804H307.091V150.528H319.128Z" fill="white"/>
<path d="M372.224 150.528V269.095H343.809V150.528H372.224ZM344.401 256.646V269.095H329.996V267.119C329.996 267.119 330.391 267.119 331.18 267.119C331.969 267.119 332.43 267.119 332.561 267.119C335.587 267.119 338.218 266.131 340.454 264.155C342.691 262.047 343.809 259.544 343.809 256.646H344.401ZM371.83 256.646H372.224C372.356 259.544 373.474 262.047 375.579 264.155C377.815 266.131 380.512 267.119 383.67 267.119C383.67 267.119 383.998 267.119 384.656 267.119C385.445 267.119 385.906 267.119 386.037 267.119V269.095H371.83V256.646ZM371.83 162.977V150.528H386.037L385.84 152.504C385.84 152.504 385.511 152.504 384.854 152.504C384.196 152.504 383.801 152.504 383.67 152.504C380.512 152.504 377.815 153.492 375.579 155.468C373.474 157.444 372.356 159.947 372.224 162.977H371.83ZM344.401 162.977H343.809C343.809 159.947 342.691 157.444 340.454 155.468C338.218 153.492 335.521 152.504 332.364 152.504C332.364 152.504 331.969 152.504 331.18 152.504C330.391 152.504 329.996 152.504 329.996 152.504V150.528H344.401V162.977Z" fill="white"/>
<path d="M439.85 150.528V269.095H411.434V150.528H439.85ZM485.827 261.191L490.563 269.095H439.455V261.191H485.827ZM498.851 232.735L491.155 269.095H457.017L463.135 261.191C468.791 261.191 473.79 260.071 478.132 257.831C482.604 255.46 486.419 252.167 489.577 247.951C492.734 243.603 495.168 238.531 496.878 232.735H498.851ZM411.829 256.646L412.816 269.095H398.213V267.119C398.213 267.119 398.608 267.119 399.397 267.119C400.187 267.119 400.647 267.119 400.779 267.119C403.673 267.119 406.106 266.131 408.08 264.155C410.185 262.047 411.303 259.544 411.434 256.646H411.829ZM439.455 162.977V150.528H453.071V152.504C452.939 152.504 452.479 152.504 451.689 152.504C451.032 152.504 450.703 152.504 450.703 152.504C447.809 152.504 445.309 153.492 443.204 155.468C441.099 157.444 439.981 159.947 439.85 162.977H439.455ZM411.829 162.977H411.434C411.303 159.947 410.185 157.444 408.08 155.468C405.975 153.492 403.475 152.504 400.581 152.504C400.45 152.504 399.989 152.504 399.2 152.504C398.542 152.504 398.213 152.504 398.213 152.504V150.528H411.829V162.977Z" fill="white"/>
<path d="M546.222 150.528V269.095H517.807V150.528H546.222ZM592.2 261.191L596.936 269.095H545.828V261.191H592.2ZM605.224 232.735L597.528 269.095H563.39L569.507 261.191C575.164 261.191 580.163 260.071 584.504 257.831C588.977 255.46 592.792 252.167 595.949 247.951C599.107 243.603 601.54 238.531 603.25 232.735H605.224ZM518.202 256.646L519.188 269.095H504.586V267.119C504.586 267.119 504.981 267.119 505.77 267.119C506.559 267.119 507.02 267.119 507.151 267.119C510.045 267.119 512.479 266.131 514.452 264.155C516.557 262.047 517.675 259.544 517.807 256.646H518.202ZM545.828 162.977V150.528H559.443V152.504C559.312 152.504 558.851 152.504 558.062 152.504C557.404 152.504 557.075 152.504 557.075 152.504C554.181 152.504 551.682 153.492 549.577 155.468C547.472 157.444 546.354 159.947 546.222 162.977H545.828ZM518.202 162.977H517.807C517.675 159.947 516.557 157.444 514.452 155.468C512.348 153.492 509.848 152.504 506.954 152.504C506.822 152.504 506.362 152.504 505.573 152.504C504.915 152.504 504.586 152.504 504.586 152.504V150.528H518.202V162.977Z" fill="white"/>
<path d="M653.187 150.528V269.095H624.772V150.528H653.187ZM625.364 256.646V269.095H610.959V267.119C610.959 267.119 611.353 267.119 612.143 267.119C612.932 267.119 613.392 267.119 613.524 267.119C616.55 267.119 619.181 266.131 621.417 264.155C623.653 262.047 624.772 259.544 624.772 256.646H625.364ZM652.792 256.646H653.187C653.319 259.544 654.437 262.047 656.542 264.155C658.778 266.131 661.475 267.119 664.632 267.119C664.632 267.119 664.961 267.119 665.619 267.119C666.408 267.119 666.868 267.119 667 267.119V269.095H652.792V256.646ZM652.792 162.977V150.528H667L666.803 152.504C666.803 152.504 666.474 152.504 665.816 152.504C665.158 152.504 664.764 152.504 664.632 152.504C661.475 152.504 658.778 153.492 656.542 155.468C654.437 157.444 653.319 159.947 653.187 162.977H652.792ZM625.364 162.977H624.772C624.772 159.947 623.653 157.444 621.417 155.468C619.181 153.492 616.484 152.504 613.326 152.504C613.326 152.504 612.932 152.504 612.143 152.504C611.353 152.504 610.959 152.504 610.959 152.504V150.528H625.364V162.977Z" fill="white"/>
<path fill-rule="evenodd" clip-rule="evenodd" d="M125.116 268.319C129.867 266.981 134.36 265.264 138.595 263.167C150.303 257.239 159.314 248.939 165.629 238.268C171.943 227.465 175.101 214.686 175.101 199.931C175.101 185.044 171.943 172.265 165.629 161.594C159.314 150.923 150.303 142.689 138.595 136.893C127.018 130.964 113.337 128 97.5503 128C81.764 128 68.0167 130.964 56.3085 136.893C44.7319 142.689 35.7863 150.989 29.4718 161.792C23.1573 172.463 20 185.176 20 199.931C20 214.818 23.1573 227.597 29.4718 238.268C35.7863 248.939 44.7319 257.239 56.3085 263.167C67.7221 268.818 81.0733 271.714 96.3623 271.856C96.3894 271.857 96.4165 271.857 96.4437 271.857C96.8114 271.86 97.1803 271.862 97.5503 271.862C107.543 271.862 116.732 270.681 125.116 268.319ZM121.624 255.855C114.915 260.993 106.891 263.562 97.5503 263.562C88.3416 263.562 80.3169 260.993 73.4761 255.855C66.767 250.586 61.5706 243.208 57.8872 233.723C54.2037 224.237 52.3619 212.973 52.3619 199.931C52.3619 186.889 54.1379 175.625 57.6898 166.139C61.3733 156.654 66.5696 149.342 73.2788 144.204C80.1196 138.935 88.21 136.3 97.5503 136.3C106.891 136.3 114.915 138.935 121.624 144.204C128.465 149.342 133.661 156.654 137.213 166.139C140.897 175.625 142.739 186.889 142.739 199.931C142.739 212.973 140.897 224.237 137.213 233.723C133.661 243.208 128.465 250.586 121.624 255.855Z" fill="white"/>
<path d="M145.699 273.64C140.042 271.928 134.451 270.413 128.926 269.095C127.673 268.826 126.403 268.568 125.116 268.319C116.732 270.681 107.543 271.862 97.5503 271.862C97.1803 271.862 96.8114 271.86 96.4437 271.857L96.3623 271.856L96.3663 271.862C102.681 272.389 108.864 273.97 114.915 276.605C120.967 279.371 127.084 282.731 133.267 286.683C139.581 290.635 146.027 294.719 152.605 298.935C159.183 303.282 166.155 307.3 173.522 310.989C185.23 316.918 196.281 320.738 206.673 322.451C217.066 324.295 226.538 324.493 235.089 323.044C243.771 321.726 251.27 319.157 257.584 315.337C263.899 311.516 268.832 306.905 272.384 301.504C275.936 296.102 277.909 290.306 278.304 284.114L277.12 283.323C271.726 287.803 265.609 291.228 258.768 293.599C251.927 295.971 244.56 297.354 236.667 297.749C228.774 298.144 220.486 297.552 211.804 295.971C203.253 294.39 194.57 291.887 185.756 288.461C177.6 285.3 170.299 282.467 163.853 279.964C157.407 277.593 151.355 275.485 145.699 273.64Z" fill="white"/>
<path d="M450.589 400C551.22 222.059 742.179 101.95 961.19 101.95C1180.2 101.95 1371.16 222.059 1471.79 400L450.589 400Z" fill="#FEF4EF"/>
<path d="M546 114.5C546 156.75 511.75 191 469.5 191C427.25 191 393 156.75 393 114.5C393 72.2504 427.25 38.0001 469.5 38.0001C511.75 38.0001 546 72.2504 546 114.5Z" fill="#FEF4EF"/>
<path fill-rule="evenodd" clip-rule="evenodd" d="M1276.71 400C1276.71 399.923 1276.71 399.845 1276.71 399.768C1276.71 388.709 1285.56 379.711 1296.51 379.711C1307.46 379.711 1316.31 388.709 1316.31 399.768C1316.31 399.845 1316.31 399.923 1316.31 400H1313.73C1313.73 399.923 1313.73 399.845 1313.73 399.768C1313.73 390.099 1306 382.289 1296.51 382.289C1287.02 382.289 1279.29 390.099 1279.29 399.768C1279.29 399.845 1279.29 399.923 1279.29 400H1276.71Z" fill="white"/>
<path fill-rule="evenodd" clip-rule="evenodd" d="M245.628 400H116.373C119.864 367.393 147.466 342 181 342C214.535 342 242.136 367.393 245.628 400Z" fill="#FEF4EF"/>
<path d="M297.915 98.1389C297.915 105.397 292.113 111.278 284.956 111.278C277.802 111.278 272 105.397 272 98.1389C272 90.8811 277.802 85 284.956 85C292.113 85 297.915 90.8811 297.915 98.1389Z" stroke="white" stroke-width="2.57733" stroke-miterlimit="10"/>
<path d="M1211 71C1211 77.0742 1206.08 82 1200 82C1193.93 82 1189 77.0742 1189 71C1189 64.9238 1193.93 60 1200 60C1206.08 60 1211 64.9238 1211 71Z" stroke="white" stroke-width="2.57733" stroke-miterlimit="10"/>
<g style="mix-blend-mode:color-burn">
<path d="M901.641 309.353L900.479 309.147L846.278 340.489L845.873 341.588L846.875 342.193L937.335 328.453L937.954 328.067L961.839 293.57L961.875 292.582L942.884 259.737L941.947 259.286L901.648 265.392L901.061 265.731L844.037 337.277L844.059 338.452L845.219 338.648L899.411 307.308L899.809 306.193C898.067 301.443 899.913 295.997 904.434 293.378C909.511 290.454 915.984 292.183 918.926 297.249C921.844 302.325 920.115 308.795 915.055 311.737C910.528 314.358 904.889 313.235 901.641 309.353Z" fill="#616E7D"/>
<path d="M1029.71 187.497L1069.27 255.884C1153.11 205.693 1256.92 125.886 1246.44 107.782C1235.98 89.6846 1115.03 139.86 1029.71 187.497Z" fill="#82BFAB"/>
<path d="M958.196 274.488C967.237 290.126 970.982 305.559 1020.11 282.649L982.007 216.755C937.644 247.915 949.155 258.853 958.196 274.488Z" fill="#82BFAB"/>
<path d="M1020.11 282.649C1025.65 280.069 1031.76 276.999 1038.51 273.391L999.209 205.418C992.71 209.477 986.995 213.247 982.007 216.755L1020.11 282.649Z" fill="#AAD4C8"/>
<path d="M999.209 205.418L1038.51 273.391C1044.42 270.235 1050.78 266.708 1057.74 262.682C1061.52 260.498 1065.38 258.21 1069.27 255.884L1029.71 187.497C1025.76 189.702 1021.86 191.908 1018.07 194.096C1011.12 198.118 1004.89 201.871 999.209 205.418Z" fill="#616E7D"/>
</g>
</svg>
